<svg xmlns="http://www.w3.org/2000/svg" viewBox="0 0 200 240" width="200" height="240">
<title>Annika 3 - Soft Anime</title>
<defs><linearGradient id="haarLang" gradientUnits="userSpaceOnUse" x1="0" y1="60" x2="0" y2="238"><stop offset="0" stop-color="#3B2A20" stop-opacity="1"/><stop offset="1" stop-color="#2E2119" stop-opacity="1"/></linearGradient><linearGradient id="halsSchatten" gradientUnits="userSpaceOnUse" x1="0" y1="140" x2="0" y2="166"><stop offset="0" stop-color="#C2A590" stop-opacity="0.9"/><stop offset="1" stop-color="#C2A590" stop-opacity="0"/></linearGradient><clipPath id="halsClip"><path d="M88,128 L87,176 L113,176 L112,128 Z"/></clipPath><radialGradient id="hautAn" gradientUnits="userSpaceOnUse" cx="98" cy="90" r="70"><stop offset="0.6" stop-color="#F9D3B8" stop-opacity="1"/><stop offset="1" stop-color="#E8C4AB" stop-opacity="1"/></radialGradient><clipPath id="gesichtClip"><path d="M100,30 C126,30 146,47 146,80 C146,102 142,118 135,128 L110,145 Q100,150 90,145 L65,128 C58,118 54,102 54,80 C54,47 74,30 100,30 Z"/></clipPath><linearGradient id="ansatz" gradientUnits="userSpaceOnUse" x1="0" y1="44" x2="0" y2="64"><stop offset="0" stop-color="#CCAD97" stop-opacity="0.6"/><stop offset="1" stop-color="#CCAD97" stop-opacity="0"/></linearGradient><radialGradient id="wl" gradientUnits="userSpaceOnUse" cx="71" cy="121" r="10"><stop offset="0" stop-color="#F27A8A" stop-opacity="0.32"/><stop offset="1" stop-color="#F27A8A" stop-opacity="0"/></radialGradient><radialGradient id="wr" gradientUnits="userSpaceOnUse" cx="129" cy="121" r="10"><stop offset="0" stop-color="#F27A8A" stop-opacity="0.32"/><stop offset="1" stop-color="#F27A8A" stop-opacity="0"/></radialGradient><clipPath id="augeAn-1"><path d="M90,103 Q81,88 70,99 Q80,110.5 90,103 Z"/></clipPath><linearGradient id="irisAn-1" gradientUnits="userSpaceOnUse" x1="0" y1="95" x2="0" y2="109"><stop offset="0" stop-color="#234064" stop-opacity="1"/><stop offset="1" stop-color="#699AD0" stop-opacity="1"/></linearGradient><clipPath id="augeAns-1"><path d="M90,103 Q81,88 70,99 Q80,110.5 90,103 Z"/></clipPath><clipPath id="augeAn1"><path d="M110,103 Q119,88 130,99 Q120,110.5 110,103 Z"/></clipPath><linearGradient id="irisAn1" gradientUnits="userSpaceOnUse" x1="0" y1="95" x2="0" y2="109"><stop offset="0" stop-color="#234064" stop-opacity="1"/><stop offset="1" stop-color="#699AD0" stop-opacity="1"/></linearGradient><clipPath id="augeAns1"><path d="M110,103 Q119,88 130,99 Q120,110.5 110,103 Z"/></clipPath></defs>
<g id="hair-back">
<path d="M100,20 C66,20 46,42 46,86 L42,196 C42,214 46,228 54,238 L146,238 C154,228 158,214 158,196 L154,86 C154,42 134,20 100,20 Z" fill="#2A1E17" stroke="#231913" stroke-width="3" stroke-linecap="round" stroke-linejoin="round"/>
</g>
<g id="neck">
<path d="M88,128 L87,176 L113,176 L112,128 Z" fill="#F9D3B8" stroke="#897465" stroke-width="3" stroke-linecap="round" stroke-linejoin="round"/><g clip-path="url(#halsClip)"><path d="M80,128 L120,128 L120,150 Q100,166 80,150 Z" fill="url(#halsSchatten)"/></g>
</g>
<g id="torso-hint">
<path d="M30,240 L33,200 C35,178 50,166 72,164 L86,161 Q100,178 114,161 L128,164 C150,166 165,178 167,200 L170,240 Z" fill="#2B2830" stroke="#18161A" stroke-width="3" stroke-linecap="round" stroke-linejoin="round"/><path d="M86,161 Q100,178 114,161" fill="none" stroke="#18161A" stroke-width="2" stroke-linecap="round" stroke-linejoin="round" stroke-opacity="0.5"/>
</g>
<g id="ears">
<path d="M62,93 C53,87 47,97 49,107 C51,116 57,121 63,117 Z" fill="#F9D3B8" stroke="#897465" stroke-width="3" stroke-linecap="round" stroke-linejoin="round"/><path d="M138,93 C147,87 153,97 151,107 C149,116 143,121 137,117 Z" fill="#F9D3B8" stroke="#897465" stroke-width="3" stroke-linecap="round" stroke-linejoin="round"/><path d="M58,97 C53,99 53,108 58,111" fill="none" stroke="#897465" stroke-width="1.6" stroke-linecap="round" stroke-linejoin="round" stroke-opacity="0.6"/><path d="M142,97 C147,99 147,108 142,111" fill="none" stroke="#897465" stroke-width="1.6" stroke-linecap="round" stroke-linejoin="round" stroke-opacity="0.6"/>
</g>
<g id="face-shape">
<path d="M100,30 C126,30 146,47 146,80 C146,102 142,118 135,128 L110,145 Q100,150 90,145 L65,128 C58,118 54,102 54,80 C54,47 74,30 100,30 Z" fill="url(#hautAn)" stroke="#897465" stroke-width="3" stroke-linejoin="round"/>
</g>
<g id="shading">
<g clip-path="url(#gesichtClip)"><path d="M40,30 L160,30 L160,70 L40,70 Z" fill="url(#ansatz)"/><ellipse cx="71" cy="121" rx="10" ry="6" fill="url(#wl)"/><ellipse cx="129" cy="121" rx="10" ry="6" fill="url(#wr)"/></g>
</g>
<g id="jaw">

</g>
<g id="eyes">
<path d="M90,103 Q81,88 70,99 Q80,110.5 90,103 Z" fill="#FFFFFF"/><g clip-path="url(#augeAn-1)"><ellipse cx="80.5" cy="102.5" rx="5.6" ry="7.4" fill="url(#irisAn-1)"/><circle cx="80.5" cy="103" r="2.8" fill="#1A1420"/><circle cx="78.5" cy="99.8" r="2" fill="#FFFFFF"/><circle cx="82.5" cy="105.2" r="1" fill="#FFFFFF" fill-opacity="0.85"/></g><path d="M90.5,102.6 Q81,87.5 70,98.5 L67,96.5" fill="none" stroke="#3A2630" stroke-width="3.4" stroke-linecap="round" stroke-linejoin="round"/><path d="M73,95.5 L70,92.5" fill="none" stroke="#3A2630" stroke-width="1.8" stroke-linecap="round" stroke-linejoin="round"/><path d="M110,103 Q119,88 130,99 Q120,110.5 110,103 Z" fill="#FFFFFF"/><g clip-path="url(#augeAn1)"><ellipse cx="119.5" cy="102.5" rx="5.6" ry="7.4" fill="url(#irisAn1)"/><circle cx="119.5" cy="103" r="2.8" fill="#1A1420"/><circle cx="117.5" cy="99.8" r="2" fill="#FFFFFF"/><circle cx="121.5" cy="105.2" r="1" fill="#FFFFFF" fill-opacity="0.85"/></g><path d="M109.5,102.6 Q119,87.5 130,98.5 L133,96.5" fill="none" stroke="#3A2630" stroke-width="3.4" stroke-linecap="round" stroke-linejoin="round"/><path d="M127,95.5 L130,92.5" fill="none" stroke="#3A2630" stroke-width="1.8" stroke-linecap="round" stroke-linejoin="round"/>
</g>
<g id="eyes-smile" display="none">
<g clip-path="url(#augeAns-1)"><path d="M69,108 Q81,101 93,107 L93,116 L69,116 Z" fill="#F9D3B8"/></g><path d="M72,107 Q81,102 90,106.5" fill="none" stroke="#897465" stroke-width="1.4" stroke-linecap="round" stroke-linejoin="round" stroke-opacity="0.55"/><g clip-path="url(#augeAns1)"><path d="M107,108 Q119,101 131,107 L131,116 L107,116 Z" fill="#F9D3B8"/></g><path d="M110,107 Q119,102 128,106.5" fill="none" stroke="#897465" stroke-width="1.4" stroke-linecap="round" stroke-linejoin="round" stroke-opacity="0.55"/>
</g>
<g id="brows">
<path d="M91,89.5 Q80,83 70,86.5 Q80,85.5 91,91.5 Z" fill="#3E2C22"/><path d="M91,90.5 Q80,84 70,86.5" fill="none" stroke="#3E2C22" stroke-width="1.2" stroke-linecap="round" stroke-linejoin="round"/><path d="M109,89.5 Q120,83 130,86.5 Q120,85.5 109,91.5 Z" fill="#3E2C22"/><path d="M109,90.5 Q120,84 130,86.5" fill="none" stroke="#3E2C22" stroke-width="1.2" stroke-linecap="round" stroke-linejoin="round"/>
</g>
<g id="nose">
<path d="M101.5,117.5 L99.5,119.5" fill="none" stroke="#957F6E" stroke-width="1.8" stroke-linecap="round" stroke-linejoin="round"/>
</g>
<g id="mouth-neutral">
<path d="M95,131 Q100,132.8 105,131" fill="none" stroke="#714442" stroke-width="1.8" stroke-linecap="round" stroke-linejoin="round"/><path d="M96,132.6 Q100,135.6 104,132.6 Q100,133.8 96,132.6 Z" fill="#E28784"/>
</g>
<g id="mouth-smile" display="none">
<path d="M93,130 Q100,132.5 107,130 Q105,137.5 100,137.5 Q95,137.5 93,130 Z" fill="#7A2A36" stroke="#714442" stroke-width="1.4" stroke-linecap="round" stroke-linejoin="round"/><path d="M95.5,135 Q100,133 104.5,135 Q100,137.5 95.5,135 Z" fill="#F0707E"/>
</g>
<g id="hair-front">
<path d="M99.2,22 C78,21 58,32 53,58 C49,78 50,100 51,124 C52,152 56,186 60,226 L42,228 C37,196 37,160 39,134 C42,112 51,92 55,84 C59,66 70,53 86,50 C94,48.5 98,46 99.2,40 Z" fill="url(#haarLang)" stroke="#231913" stroke-width="3" stroke-linejoin="round"/><path d="M100.8,22 C122,21 142,32 147,58 C151,78 150,100 149,124 C148,152 144,186 140,226 L158,228 C163,196 163,160 161,134 C158,112 149,92 145,84 C141,66 130,53 114,50 C106,48.5 102,46 100.8,40 Z" fill="url(#haarLang)" stroke="#231913" stroke-width="3" stroke-linejoin="round"/><path d="M84,26 Q64,32 56,54" fill="none" stroke="#7A6E67" stroke-width="2.2" stroke-linecap="round" stroke-linejoin="round" stroke-opacity="0.6"/><path d="M116,26 Q136,32 144,54" fill="none" stroke="#7A6E67" stroke-width="2.2" stroke-linecap="round" stroke-linejoin="round" stroke-opacity="0.6"/><path d="M140,60 Q148,100 146,140 Q144,180 146,222" fill="none" stroke="#251A14" stroke-width="1.2" stroke-linecap="round" stroke-linejoin="round" stroke-opacity="0.8"/><path d="M60,60 Q52,100 54,140 Q56,180 54,222" fill="none" stroke="#251A14" stroke-width="1.2" stroke-linecap="round" stroke-linejoin="round" stroke-opacity="0.8"/><path d="M104,28 Q128,34 136,64" fill="none" stroke="#251A14" stroke-width="1.2" stroke-linecap="round" stroke-linejoin="round" stroke-opacity="0.8"/><path d="M96,28 Q72,34 64,64" fill="none" stroke="#251A14" stroke-width="1.2" stroke-linecap="round" stroke-linejoin="round" stroke-opacity="0.8"/>
</g>
</svg>
