<svg xmlns="http://www.w3.org/2000/svg" viewBox="0 0 200 240" width="200" height="240">
<title>Annika 3 - Modernes Bitmoji</title>
<defs><linearGradient id="haarLang" gradientUnits="userSpaceOnUse" x1="0" y1="30" x2="0" y2="236"><stop offset="0" stop-color="#503728" stop-opacity="1"/><stop offset="0.35" stop-color="#3B2A20" stop-opacity="1"/><stop offset="1" stop-color="#32241B" stop-opacity="1"/></linearGradient><clipPath id="halsClip"><path d="M90.5,126 L89.5,176 L110.5,176 L109.5,126 Z"/></clipPath><linearGradient id="halsS" gradientUnits="userSpaceOnUse" x1="0" y1="132" x2="0" y2="156"><stop offset="0" stop-color="#C2A590" stop-opacity="0.8"/><stop offset="1" stop-color="#C2A590" stop-opacity="0"/></linearGradient><radialGradient id="hautAn" gradientUnits="userSpaceOnUse" cx="98" cy="92" r="64"><stop offset="0.62" stop-color="#F9D3B8" stop-opacity="1"/><stop offset="1" stop-color="#E8C4AB" stop-opacity="1"/></radialGradient><clipPath id="gesichtClip"><path d="M100,34 C123,34 141,50 141,82 C141,104 137,120 128,131 C119,141 109,146 100,146 C91,146 81,141 72,131 C63,120 59,104 59,82 C59,50 77,34 100,34 Z"/></clipPath><radialGradient id="w-1" gradientUnits="userSpaceOnUse" cx="73" cy="119" r="11"><stop offset="0" stop-color="#F07C86" stop-opacity="0.24"/><stop offset="1" stop-color="#F07C86" stop-opacity="0"/></radialGradient><radialGradient id="w1" gradientUnits="userSpaceOnUse" cx="127" cy="119" r="11"><stop offset="0" stop-color="#F07C86" stop-opacity="0.24"/><stop offset="1" stop-color="#F07C86" stop-opacity="0"/></radialGradient><clipPath id="augeAn-1"><path d="M89.5,103 C86.5,96 77.5,94.5 71.5,98.6 Q79.5,109.5 89.5,103 Z"/></clipPath><linearGradient id="augeAn-1i" gradientUnits="userSpaceOnUse" x1="0" y1="96" x2="0" y2="108"><stop offset="0" stop-color="#1C3451" stop-opacity="1"/><stop offset="1" stop-color="#74A2D4" stop-opacity="1"/></linearGradient><clipPath id="augeAns-1"><path d="M89.5,103 C86.5,96 77.5,94.5 71.5,98.6 Q79.5,109.5 89.5,103 Z"/></clipPath><clipPath id="augeAn1"><path d="M110.5,103 C113.5,96 122.5,94.5 128.5,98.6 Q120.5,109.5 110.5,103 Z"/></clipPath><linearGradient id="augeAn1i" gradientUnits="userSpaceOnUse" x1="0" y1="96" x2="0" y2="108"><stop offset="0" stop-color="#1C3451" stop-opacity="1"/><stop offset="1" stop-color="#74A2D4" stop-opacity="1"/></linearGradient><clipPath id="augeAns1"><path d="M110.5,103 C113.5,96 122.5,94.5 128.5,98.6 Q120.5,109.5 110.5,103 Z"/></clipPath></defs>
<g id="hair-back">
<path d="M100,31 C76,31 56,40 54,62 C52,90 51,120 50,150 C48,180 40,205 36,232 L46,225 L53,236 L62,228 L74,234 L100,230 L126,234 L138,228 L147,236 L154,225 L164,232 C160,205 152,180 150,150 C149,120 148,90 146,62 C144,40 124,31 100,31 Z" fill="#291D16" stroke="#201712" stroke-width="3" stroke-linecap="round" stroke-linejoin="round"/>
</g>
<g id="neck">
<path d="M90.5,126 L89.5,176 L110.5,176 L109.5,126 Z" fill="#F9D3B8" stroke="#897465" stroke-width="3.2" stroke-linecap="round" stroke-linejoin="round"/><g clip-path="url(#halsClip)"><path d="M84,126 L116,126 L116,140 Q100,158 84,140 Z" fill="url(#halsS)"/></g>
</g>
<g id="torso-hint">
<path d="M38.4,240 L41,200 C42.8,178 56,166 75.4,164 L87.7,161 Q100,176 112.3,161 L124.6,164 C144,166 157.2,178 159,200 L161.6,240 Z" fill="#2B2830" stroke="#18161A" stroke-width="3.2" stroke-linecap="round" stroke-linejoin="round"/>
</g>
<g id="ears">
<path d="M140,97 C147,93 151,103 149,111 C148,118 144,121 140,118 Z" fill="#F9D3B8" stroke="#897465" stroke-width="3.2" stroke-linecap="round" stroke-linejoin="round"/><path d="M142,101 C146,103 146,110 142,113" fill="none" stroke="#897465" stroke-width="1.4" stroke-linecap="round" stroke-linejoin="round" stroke-opacity="0.6"/><circle cx="143.5" cy="120.5" r="2" fill="#F5C542"/><circle cx="143" cy="120" r="0.7" fill="#FFFFFF" fill-opacity="0.8"/>
</g>
<g id="face-shape">
<path d="M100,34 C123,34 141,50 141,82 C141,104 137,120 128,131 C119,141 109,146 100,146 C91,146 81,141 72,131 C63,120 59,104 59,82 C59,50 77,34 100,34 Z" fill="url(#hautAn)" stroke="#897465" stroke-width="3.2" stroke-linejoin="round"/>
</g>
<g id="shading">
<g clip-path="url(#gesichtClip)"><ellipse cx="73" cy="119" rx="11" ry="7" fill="url(#w-1)"/><ellipse cx="127" cy="119" rx="11" ry="7" fill="url(#w1)"/></g>
</g>
<g id="jaw">

</g>
<g id="eyes">
<path d="M89.5,103 C86.5,96 77.5,94.5 71.5,98.6 Q79.5,109.5 89.5,103 Z" fill="#FFFFFF"/><g clip-path="url(#augeAn-1)"><ellipse cx="81.2" cy="102.3" rx="5.2" ry="6" fill="url(#augeAn-1i)"/><circle cx="81.2" cy="102.6" r="2.4" fill="#140C0A"/><circle cx="79.4" cy="100.2" r="1.7" fill="#FFFFFF"/><circle cx="83.1" cy="104.4" r="0.8" fill="#FFFFFF" fill-opacity="0.85"/></g><path d="M89.5,103 C86.5,96 77.5,94.5 71.5,98.6 L67.9,95.8" fill="none" stroke="#3A2630" stroke-width="3" stroke-linecap="round" stroke-linejoin="round"/><path d="M74,97.4 L71.3,94.6" fill="none" stroke="#3A2630" stroke-width="1.5" stroke-linecap="round" stroke-linejoin="round"/><path d="M110.5,103 C113.5,96 122.5,94.5 128.5,98.6 Q120.5,109.5 110.5,103 Z" fill="#FFFFFF"/><g clip-path="url(#augeAn1)"><ellipse cx="118.8" cy="102.3" rx="5.2" ry="6" fill="url(#augeAn1i)"/><circle cx="118.8" cy="102.6" r="2.4" fill="#140C0A"/><circle cx="117" cy="100.2" r="1.7" fill="#FFFFFF"/><circle cx="120.7" cy="104.4" r="0.8" fill="#FFFFFF" fill-opacity="0.85"/></g><path d="M110.5,103 C113.5,96 122.5,94.5 128.5,98.6 L132.1,95.8" fill="none" stroke="#3A2630" stroke-width="3" stroke-linecap="round" stroke-linejoin="round"/><path d="M126,97.4 L128.7,94.6" fill="none" stroke="#3A2630" stroke-width="1.5" stroke-linecap="round" stroke-linejoin="round"/>
</g>
<g id="eyes-smile" display="none">
<g clip-path="url(#augeAns-1)"><path d="M70,107.5 Q81.5,101 93,106.5 L93,116 L70,116 Z" fill="#F9D3B8"/></g><path d="M73,106.5 Q81.5,102 90,106" fill="none" stroke="#A48B79" stroke-width="1.4" stroke-linecap="round" stroke-linejoin="round" stroke-opacity="0.55"/><g clip-path="url(#augeAns1)"><path d="M107,107.5 Q118.5,101 130,106.5 L130,116 L107,116 Z" fill="#F9D3B8"/></g><path d="M110,106.5 Q118.5,102 127,106" fill="none" stroke="#A48B79" stroke-width="1.4" stroke-linecap="round" stroke-linejoin="round" stroke-opacity="0.55"/>
</g>
<g id="brows">
<path d="M91.5,90 Q81,83.2 71.5,87.2 Q81,86 91,92.4 Z" fill="#3E2C22"/><path d="M108.5,90 Q119,83.2 128.5,87.2 Q119,86 109,92.4 Z" fill="#3E2C22"/>
</g>
<g id="nose">
<path d="M101.5,112 Q104,118 100.5,119.5" fill="none" stroke="#897465" stroke-width="1.8" stroke-linecap="round" stroke-linejoin="round"/>
</g>
<g id="mouth-neutral">
<path d="M92.5,130.6 Q96,127.8 100,129.2 Q104,127.8 107.5,130.6 Q100,131.6 92.5,130.6 Z" fill="#C77774"/><path d="M92.5,130.6 Q100,131.6 107.5,130.6 Q105,135.8 100,135.8 Q95,135.8 92.5,130.6 Z" fill="#E28784"/><path d="M93,130.6 Q100,131.8 107,130.6" fill="none" stroke="#8C5452" stroke-width="0.9" stroke-linecap="round" stroke-linejoin="round"/><ellipse cx="101.2" cy="133.4" rx="3" ry="0.9" fill="#FFFFFF" fill-opacity="0.45"/>
</g>
<g id="mouth-smile" display="none">
<path d="M92,129.5 Q96,127.4 100,128.6 Q104,127.4 108,129.5 Q100,132.8 92,129.5 Z" fill="#C77774"/><path d="M92,129.5 Q100,132.8 108,129.5 Q105.5,135.6 100,135.6 Q94.5,135.6 92,129.5 Z" fill="#E28784"/><path d="M91.5,129.3 Q100,133.4 108.5,129.3" fill="none" stroke="#8C5452" stroke-width="1.3" stroke-linecap="round" stroke-linejoin="round"/><path d="M90.5,128 Q91,129.5 92.2,129.8" fill="none" stroke="#8C5452" stroke-width="1" stroke-linecap="round" stroke-linejoin="round"/><path d="M109.5,128 Q109,129.5 107.8,129.8" fill="none" stroke="#8C5452" stroke-width="1" stroke-linecap="round" stroke-linejoin="round"/>
</g>
<g id="hair-front">
<path d="M58.5,70 C57.5,96 62.5,118 65,142 C68,116 65,100 64,76 Z" fill="#3B2A20" stroke="#201712" stroke-width="3" stroke-linejoin="round"/><path d="M99.2,30 C72,27 54,38 52,60 C50,84 53,112 51,140 C48,168 40,198 38,230 L43,222 L47,234 L52,222 L58,231 C59,200 61,170 64,142 C66,128 63,114 64,102 C65,86 75,74.3 86,68.5 C92,66 97,65 99.2,65 Z" fill="url(#haarLang)" stroke="#201712" stroke-width="3" stroke-linejoin="round"/><path d="M100.8,30 C128,27 146,38 148,60 C150,86 151,122 153,152 C156,176 160,200 162,230 L157,222 L153,234 L148,222 L143,231 C143,206 145,180 147,158 L150,154 C149,134 149,120 148,108 C146,90 128,73.3 114,68.5 C108,66 103,65 100.8,65 Z" fill="url(#haarLang)" stroke="#201712" stroke-width="3" stroke-linejoin="round"/><path d="M94,35 C72,37 56,56 54,92 C52,130 53,170 56,214" fill="none" stroke="#201712" stroke-width="1.2" stroke-linecap="round" stroke-linejoin="round" stroke-opacity="0.7"/><path d="M86,35 C66,37 52,52 50,80" fill="none" stroke="#201712" stroke-width="1.2" stroke-linecap="round" stroke-linejoin="round" stroke-opacity="0.7"/><path d="M60,120 C59,150 57,180 60,222" fill="none" stroke="#201712" stroke-width="1.2" stroke-linecap="round" stroke-linejoin="round" stroke-opacity="0.7"/><path d="M96,40 C82,44 72,58 67,78" fill="none" stroke="#201712" stroke-width="1.2" stroke-linecap="round" stroke-linejoin="round" stroke-opacity="0.7"/><path d="M94,38 Q74,39 63,56" fill="none" stroke="#7B5F4B" stroke-width="2.2" stroke-linecap="round" stroke-linejoin="round" stroke-opacity="0.55"/><path d="M106,38 Q126,39 137,56" fill="none" stroke="#7B5F4B" stroke-width="2.2" stroke-linecap="round" stroke-linejoin="round" stroke-opacity="0.55"/><path d="M56,150 Q58,175 62,205" fill="none" stroke="#7B5F4B" stroke-width="2.2" stroke-linecap="round" stroke-linejoin="round" stroke-opacity="0.55"/>
</g>
</svg>
